<?xml version="1.0" encoding="utf-8"?>
<!-- Generator: Adobe Illustrator 25.2.0, SVG Export Plug-In . SVG Version: 6.00 Build 0)  -->
<svg version="1.1" id="Calque_1" xmlns="http://www.w3.org/2000/svg" xmlns:xlink="http://www.w3.org/1999/xlink" x="0px" y="0px"
	 width="256px" height="256px" viewBox="0 0 256 256" style="enable-background:new 0 0 256 256;" xml:space="preserve">
<style type="text/css">
	.st0{fill:#205CBC;}
	.st1{fill:#FFFFFF;}
	.st2{fill:#FF6600;}
</style>
<rect class="st0" width="256" height="256"/>
<ellipse class="st1" cx="56.1" cy="178.8" rx="16" ry="16"/>
<ellipse class="st1" cx="199.9" cy="178.8" rx="16" ry="16"/>
<ellipse class="st1" cx="129.2" cy="208.4" rx="16" ry="16"/>
<path class="st1" d="M81.5,146.9l-12.4,12.3c3.3,2.5,4.9,4.1,6.6,7.4l19.8-19.7H81.5z"/>
<path class="st1" d="M124.3,146.9v38.6c1.3-0.4,3.3-0.8,4.9-0.8c1.6,0,4.1,0,4.9,0.8v-38.6H124.3z"/>
<path class="st1" d="M167.1,140.3c-3.3,2.5-5.8,4.1-9.1,4.1l21.4,21.4c1.6-3.3,4.1-4.9,6.6-7.4L167.1,140.3z"/>
<path class="st2" d="M103.7,29.4c-15.6,0-28.8,12.3-28.8,28.8v88.8h79.9c15.6,0,28.8-12.3,28.8-28.8V29.4H103.7z"/>
<path class="st1" d="M135,67.2c0,0,0.8-19.7,19.8-19.7h9.9v-9.9h-9.9c-29.6,0-29.6,29.6-29.6,29.6v15.6c0,0,0,18.1-19.8,18.1h-9.9
	v8.2h9.9c8.2,0,14-2.5,18.9-5.8c-1.6,5.8-6.6,18.1-19.8,18.1H84v9.9h21.4c23.9,0,28.8-21.4,29.6-28.8c8.2,7.4,21.4,8.2,21.4,8.2h9.9
	v-9h-9.9c0,0-19.8,0.8-19.8-18.9L135,67.2L135,67.2z"/>
</svg>
